<?xml version="1.0" encoding="utf-8"?>
<!-- Generator: Adobe Illustrator 24.2.0, SVG Export Plug-In . SVG Version: 6.00 Build 0)  -->
<svg version="1.1" id="Layer_1" xmlns="http://www.w3.org/2000/svg" xmlns:xlink="http://www.w3.org/1999/xlink" x="0px" y="0px"
	 viewBox="0 0 1000 291.4" style="enable-background:new 0 0 1000 291.4;" xml:space="preserve">
<style type="text/css">
	.st0{fill:#FF004F;}
	.st1{fill:#00F2EA;}
</style>
<g>
	<path class="st0" d="M191.1,105.2c18.8,13.4,41.9,21.4,66.8,21.4V78.7c-4.7,0-9.4-0.5-14-1.5v37.7c-24.9,0-47.9-7.9-66.8-21.3v97.7
		c0,48.9-39.6,88.5-88.5,88.5c-18.2,0-35.2-5.5-49.3-15c16.1,16.4,38.5,26.6,63.3,26.6c48.9,0,88.5-39.6,88.5-88.5L191.1,105.2
		L191.1,105.2z M208.4,56.9c-9.6-10.5-15.9-24.1-17.3-39.1v-6.2h-13.3C181.2,30.7,192.6,47,208.4,56.9L208.4,56.9z M70.2,227.3
		c-5.4-7-8.3-15.7-8.3-24.5c0-22.4,18.1-40.5,40.5-40.5c4.2,0,8.3,0.6,12.3,1.9v-48.9c-4.6-0.6-9.3-0.9-14-0.8v38.1
		c-4-1.3-8.1-1.9-12.3-1.9c-22.4,0-40.5,18.1-40.5,40.5C47.9,206.9,57,220.6,70.2,227.3z"/>
	<path d="M177.1,93.5c18.8,13.4,41.9,21.3,66.8,21.3V77.2c-13.9-3-26.2-10.2-35.4-20.3c-15.8-9.9-27.2-26.2-30.6-45.2h-34.9v191.2
		c-0.1,22.3-18.2,40.3-40.5,40.3c-13.2,0-24.8-6.3-32.2-16c-13.2-6.7-22.3-20.4-22.3-36.2c0-22.4,18.1-40.5,40.5-40.5
		c4.3,0,8.4,0.7,12.3,1.9v-38.1c-48,1-86.7,40.2-86.7,88.5c0,24.1,9.6,45.9,25.2,61.9c14.1,9.5,31,15,49.3,15
		c48.9,0,88.5-39.6,88.5-88.5L177.1,93.5L177.1,93.5z"/>
	<path class="st1" d="M243.8,77.2V67c-12.5,0-24.8-3.5-35.4-10.1C217.8,67.2,230.2,74.3,243.8,77.2z M177.8,11.7
		c-0.3-1.8-0.6-3.7-0.7-5.5V0h-48.2v191.2c-0.1,22.3-18.2,40.3-40.5,40.3c-6.6,0-12.7-1.6-18.2-4.3c7.4,9.7,19.1,16,32.2,16
		c22.3,0,40.4-18,40.5-40.3V11.7H177.8z M100.7,114.4v-10.8c-4-0.6-8.1-0.8-12.1-0.8C39.6,102.7,0,142.4,0,191.2
		c0,30.6,15.6,57.6,39.3,73.5C23.6,248.8,14,227,14,202.9C14,154.6,52.7,115.4,100.7,114.4z"/>
	<path class="st0" d="M802.1,239.7c35,0,63.4-28.1,63.4-62.8c0-34.7-28.4-62.8-63.4-62.8h-9.5c35,0,63.4,28.1,63.4,62.8
		s-28.4,62.8-63.4,62.8H802.1z"/>
	<path class="st1" d="M791.7,114h-9.5c-35,0-63.4,28.1-63.4,62.8s28.4,62.8,63.4,62.8h9.5c-35,0-63.4-28.1-63.4-62.8
		C728.4,142.1,756.7,114,791.7,114z"/>
	<path d="M310.1,85.6v31.9h37.3v121.4h37.3V118.3h30.4l10.4-32.7L310.1,85.6L310.1,85.6z M615.5,85.6v31.9h37.3v121.4h37.3V118.3
		h30.4L731,85.6L615.5,85.6L615.5,85.6z M432.4,103.6c0-10,8.1-18.1,18.2-18.1c10.1,0,18.2,8.1,18.2,18.1c0,10-8.1,18.1-18.2,18.1
		C440.6,121.7,432.4,113.6,432.4,103.6z M432.4,134.6h36.4v104.2h-36.4V134.6z M484.5,85.6v153.2h36.5v-39.6l11.3-10.3l35.6,50.8h39
		l-51.2-74l46-44.8h-44.3L520.9,157V85.6H484.5z M877.6,85.6v153.2h36.5v-39.6l11.3-10.3l35.6,50.8h39.1l-51.2-74l46-44.8h-44.3
		L914.1,157V85.6H877.6z"/>
	<path d="M792.6,239.7c35,0,63.4-28.1,63.4-62.8c0-34.7-28.4-62.8-63.4-62.8h-0.9c-35,0-63.4,28.1-63.4,62.8s28.4,62.8,63.4,62.8
		H792.6z M761.3,176.8c0-16.9,13.8-30.6,30.8-30.6c17,0,30.8,13.7,30.8,30.6s-13.8,30.6-30.8,30.6
		C775.1,207.4,761.3,193.7,761.3,176.8z"/>
</g>
<image style="overflow:visible;" width="958" height="749" xlink:href="39A3F9EE.jpg"  transform="matrix(1 0 0 1 1032 -228)">
</image>
</svg>
